<?xml version="1.0" encoding="UTF-8" standalone="no"?>
<svg width="53px" height="40px" viewBox="0 0 53 40" version="1.1" xmlns="http://www.w3.org/2000/svg" xmlns:xlink="http://www.w3.org/1999/xlink">
    <!-- Generator: sketchtool 39.1 (31720) - http://www.bohemiancoding.com/sketch -->
    <title>54BEB44B-A7B2-4D3D-96F0-A2BF7BEDD578</title>
    <desc>Created with sketchtool.</desc>
    <defs></defs>
    <g id="HiFi" stroke="none" stroke-width="1" fill="none" fill-rule="evenodd">
        <g id="Home" transform="translate(-117.000000, -19.000000)" fill="#FFFFFF">
            <g id="Nav">
                <g id="Logo" transform="translate(117.000000, 19.000000)">
                    <path d="M2.85405,19.8959306 L3.06835435,20.1910125 C7.62635435,26.4884089 15.25605,37.0303568 26.3146152,37.0303568 C37.3720283,37.0303568 45.0017239,26.4884089 49.5608761,20.1910125 L49.7740283,19.8959306 L49.5597239,19.5985342 C45.0005717,13.3022951 37.3708761,2.76266152 26.3146152,2.76266152 C15.2572022,2.76266152 7.6286587,13.3022951 3.06950652,19.5985342 L2.85405,19.8959306 Z M26.3146152,39.3447252 C14.083137,39.3447252 6.02137609,28.2068274 1.20413696,21.5518611 L0.000115217392,19.8959306 L1.20528913,18.2376856 C6.02252826,11.5838766 14.0842891,0.448293153 26.3146152,0.448293153 C38.5449413,0.448293153 46.60555,11.5838766 51.4227891,18.2376856 L52.627963,19.8959306 L51.4239413,21.5518611 C46.6067022,28.2068274 38.5460935,39.3447252 26.3146152,39.3447252 L26.3146152,39.3447252 Z" id="Fill-5"></path>
                    <path d="M26.3143848,8.19066538 C19.8875587,8.19066538 14.6589935,13.4419672 14.6589935,19.8955834 C14.6589935,26.3503568 19.8875587,31.6016586 26.3143848,31.6016586 C32.7400587,31.6016586 37.9686239,26.3503568 37.9686239,19.8955834 C37.9686239,13.4419672 32.7400587,8.19066538 26.3143848,8.19066538 M26.3143848,33.916027 C18.6167109,33.916027 12.3546457,27.626731 12.3546457,19.8955834 C12.3546457,12.1655931 18.6167109,5.87629701 26.3143848,5.87629701 C34.0120587,5.87629701 40.2729717,12.1655931 40.2729717,19.8955834 C40.2729717,27.626731 34.0120587,33.916027 26.3143848,33.916027" id="Fill-1"></path>
                    <path d="M26.3143848,15.6163163 C23.9651022,15.6163163 22.0536457,17.5360849 22.0536457,19.8955834 C22.0536457,22.255082 23.9651022,24.1748505 26.3143848,24.1748505 C28.6636674,24.1748505 30.5751239,22.255082 30.5751239,19.8955834 C30.5751239,17.5360849 28.6636674,15.6163163 26.3143848,15.6163163 M26.3143848,26.4892189 C22.6942543,26.4892189 19.7492978,23.5314561 19.7492978,19.8955834 C19.7492978,16.2608679 22.6942543,13.3019479 26.3143848,13.3019479 C29.9345152,13.3019479 32.8794717,16.2608679 32.8794717,19.8955834 C32.8794717,23.5314561 29.9345152,26.4892189 26.3143848,26.4892189" id="Fill-3"></path>
                    <polygon id="Fill-8" points="32.879587 22.0628737 30.5752391 22.0628737 30.5752391 8.23567985 32.879587 8.23567985"></polygon>
                    <polygon id="Fill-10" points="28.5554783 15.6162006 14.7040435 15.6162006 14.7040435 13.3018322 28.5554783 13.3018322"></polygon>
                    <polygon id="Fill-11" points="22.0537609 31.5575699 19.749413 31.5575699 19.749413 17.8206365 22.0537609 17.8206365"></polygon>
                    <polygon id="Fill-12" points="37.9238043 26.4902604 24.0723696 26.4902604 24.0723696 24.175892 37.9238043 24.175892"></polygon>
                    <polygon id="Fill-13" points="29.3917261 26.1304918 27.7625522 24.4942334 37.5134 14.7009836 39.1425739 16.337242"></polygon>
                    <polygon id="Fill-14" points="30.855563 18.4053616 21.1335196 8.64104147 22.7638457 7.00478303 32.484737 16.7691032"></polygon>
                    <polygon id="Fill-15" points="15.0806891 25.1269817 13.450363 23.4907232 23.1631891 13.7356606 24.792363 15.371919"></polygon>
                    <polygon id="Fill-16" points="29.8845109 32.8080231 20.1405761 23.0217165 21.76975 21.3854581 31.5136848 31.1717647"></polygon>
                </g>
            </g>
        </g>
    </g>
</svg>