<?xml version="1.0" encoding="UTF-8" standalone="no"?>
<svg width="17px" height="25px" viewBox="0 0 17 25" version="1.1" xmlns="http://www.w3.org/2000/svg" xmlns:xlink="http://www.w3.org/1999/xlink">
    <!-- Generator: sketchtool 39.1 (31720) - http://www.bohemiancoding.com/sketch -->
    <title>7F9537A2-D745-4D61-AE9A-50D990333DC3</title>
    <desc>Created with sketchtool.</desc>
    <defs></defs>
    <g id="HiFi" stroke="none" stroke-width="1" fill="none" fill-rule="evenodd">
        <g id="Home" transform="translate(-1303.000000, -26.000000)" stroke-width="2" stroke="#CCCCCC">
            <g id="Nav">
                <g id="ICONS" transform="translate(1244.000000, 27.000000)">
                    <g id="Profile" transform="translate(60.085470, 0.454545)">
                        <path d="M12.2465594,9.75147236 C12.950818,8.74014766 13.3700603,7.50506296 13.3700603,6.16661406 C13.3700603,2.76088121 10.6849675,0 7.37272466,0 C4.06048184,0 1.37538898,2.76088121 1.37538898,6.16661406 C1.37538898,7.50506296 1.7946313,8.74014766 2.49946104,9.75147236 C3.40934254,11.6043931 4.77045215,12.1159284 4.77045215,13.9758966 C4.77045215,16.9887281 0,16.4830657 0,19.4048662 C0,21.5402766 1.89287337,21.7241004 2.32696624,21.7241004 L12.4184831,21.7241004 C12.8531471,21.7241004 14.7460205,21.5402766 14.7460205,19.4048662 C14.7460205,16.4830657 9.97556834,16.9887281 9.97556834,13.9758966 C9.97556834,12.1159284 11.3366779,11.6043931 12.2465594,9.75147236 Z" id="Stroke-16"></path>
                    </g>
                </g>
            </g>
        </g>
    </g>
</svg>